<svg xmlns="http://www.w3.org/2000/svg" xmlns:xlink="http://www.w3.org/1999/xlink" width="379" zoomAndPan="magnify" viewBox="0 0 284.25 84.749999" height="113" preserveAspectRatio="xMidYMid meet" version="1.0"><defs><g/><clipPath id="b679e2d3eb"><path d="M 31 0.550781 L 43 0.550781 L 43 84 L 31 84 Z M 31 0.550781 " clip-rule="nonzero"/></clipPath><clipPath id="8afe0bfb78"><path d="M 63 29 L 74.421875 29 L 74.421875 56 L 63 56 Z M 63 29 " clip-rule="nonzero"/></clipPath><clipPath id="3f576eec84"><path d="M 0.390625 29 L 12 29 L 12 56 L 0.390625 56 Z M 0.390625 29 " clip-rule="nonzero"/></clipPath></defs><g clip-path="url(#b679e2d3eb)"><path fill="#ef8354" d="M 37.273438 83.921875 C 34.296875 83.921875 31.898438 81.519531 31.898438 78.546875 L 31.898438 6.097656 C 31.898438 3.125 34.296875 0.722656 37.273438 0.722656 C 40.246094 0.722656 42.648438 3.125 42.648438 6.097656 L 42.648438 78.546875 C 42.648438 81.519531 40.246094 83.921875 37.273438 83.921875 Z M 37.273438 83.921875 " fill-opacity="1" fill-rule="nonzero"/></g><path fill="#ef8354" d="M 53.054688 70.65625 C 50.082031 70.65625 47.679688 68.253906 47.679688 65.28125 L 47.679688 19.363281 C 47.679688 16.390625 50.082031 13.988281 53.054688 13.988281 C 56.027344 13.988281 58.429688 16.390625 58.429688 19.363281 L 58.429688 65.28125 C 58.429688 68.199219 56.027344 70.65625 53.054688 70.65625 Z M 53.054688 70.65625 " fill-opacity="1" fill-rule="nonzero"/><g clip-path="url(#8afe0bfb78)"><path fill="#ef8354" d="M 68.835938 55.445312 C 65.863281 55.445312 63.460938 53.042969 63.460938 50.070312 L 63.460938 34.574219 C 63.460938 31.601562 65.863281 29.199219 68.835938 29.199219 C 71.808594 29.199219 74.210938 31.601562 74.210938 34.574219 L 74.210938 50.128906 C 74.210938 53.042969 71.753906 55.445312 68.835938 55.445312 Z M 68.835938 55.445312 " fill-opacity="1" fill-rule="nonzero"/></g><path fill="#ef8354" d="M 21.546875 70.65625 C 18.574219 70.65625 16.171875 68.253906 16.171875 65.28125 L 16.171875 19.363281 C 16.171875 16.390625 18.574219 13.988281 21.546875 13.988281 C 24.519531 13.988281 26.921875 16.390625 26.921875 19.363281 L 26.921875 65.28125 C 26.863281 68.199219 24.464844 70.65625 21.546875 70.65625 Z M 21.546875 70.65625 " fill-opacity="1" fill-rule="nonzero"/><g clip-path="url(#3f576eec84)"><path fill="#ef8354" d="M 5.765625 55.445312 C 2.792969 55.445312 0.390625 53.042969 0.390625 50.070312 L 0.390625 34.519531 C 0.390625 31.542969 2.792969 29.144531 5.765625 29.144531 C 8.738281 29.144531 11.140625 31.542969 11.140625 34.519531 L 11.140625 50.070312 C 11.140625 53.042969 8.679688 55.445312 5.765625 55.445312 Z M 5.765625 55.445312 " fill-opacity="1" fill-rule="nonzero"/></g><g fill="#ffffff" fill-opacity="1"><g transform="translate(81.33834, 49.048194)"><g><path d="M 16.953125 -25.09375 L 16.953125 -23.734375 L 8.53125 -23.734375 C 6.8125 -23.734375 5.476562 -23.398438 4.53125 -22.734375 C 3.59375 -22.078125 3.125 -20.9375 3.125 -19.3125 C 3.125 -18.625 3.238281 -18.019531 3.46875 -17.5 C 3.707031 -16.988281 4.03125 -16.539062 4.4375 -16.15625 C 4.84375 -15.78125 5.328125 -15.445312 5.890625 -15.15625 C 6.453125 -14.875 7.054688 -14.625 7.703125 -14.40625 C 8.441406 -14.144531 9.222656 -13.90625 10.046875 -13.6875 C 10.878906 -13.476562 11.6875 -13.238281 12.46875 -12.96875 C 13.257812 -12.707031 14.015625 -12.40625 14.734375 -12.0625 C 15.453125 -11.71875 16.078125 -11.285156 16.609375 -10.765625 C 17.148438 -10.253906 17.582031 -9.640625 17.90625 -8.921875 C 18.226562 -8.203125 18.390625 -7.34375 18.390625 -6.34375 C 18.390625 -5.269531 18.203125 -4.332031 17.828125 -3.53125 C 17.460938 -2.726562 16.9375 -2.066406 16.25 -1.546875 C 15.570312 -1.035156 14.757812 -0.648438 13.8125 -0.390625 C 12.875 -0.128906 11.832031 0 10.6875 0 L 1.546875 0 L 1.546875 -1.359375 L 10.5 -1.359375 C 12.4375 -1.359375 13.972656 -1.753906 15.109375 -2.546875 C 16.242188 -3.335938 16.8125 -4.53125 16.8125 -6.125 C 16.8125 -7.269531 16.546875 -8.203125 16.015625 -8.921875 C 15.492188 -9.640625 14.828125 -10.21875 14.015625 -10.65625 C 13.203125 -11.101562 12.300781 -11.460938 11.3125 -11.734375 C 10.320312 -12.015625 9.347656 -12.296875 8.390625 -12.578125 C 7.484375 -12.835938 6.613281 -13.128906 5.78125 -13.453125 C 4.957031 -13.773438 4.226562 -14.195312 3.59375 -14.71875 C 2.96875 -15.25 2.46875 -15.890625 2.09375 -16.640625 C 1.726562 -17.398438 1.546875 -18.34375 1.546875 -19.46875 C 1.546875 -21.257812 2.132812 -22.644531 3.3125 -23.625 C 4.5 -24.601562 6.0625 -25.09375 8 -25.09375 Z M 16.953125 -25.09375 "/></g></g></g><g fill="#ffffff" fill-opacity="1"><g transform="translate(101.266307, 49.048194)"><g><path d="M 18.5625 -8.5 C 18.5625 -7.300781 18.347656 -6.164062 17.921875 -5.09375 C 17.492188 -4.019531 16.890625 -3.082031 16.109375 -2.28125 C 15.335938 -1.476562 14.425781 -0.835938 13.375 -0.359375 C 12.320312 0.117188 11.1875 0.359375 9.96875 0.359375 C 8.75 0.359375 7.613281 0.117188 6.5625 -0.359375 C 5.507812 -0.835938 4.597656 -1.476562 3.828125 -2.28125 C 3.066406 -3.082031 2.460938 -4.019531 2.015625 -5.09375 C 1.578125 -6.164062 1.359375 -7.300781 1.359375 -8.5 C 1.359375 -9.6875 1.578125 -10.816406 2.015625 -11.890625 C 2.460938 -12.972656 3.066406 -13.914062 3.828125 -14.71875 C 4.597656 -15.519531 5.507812 -16.15625 6.5625 -16.625 C 7.613281 -17.101562 8.75 -17.34375 9.96875 -17.34375 C 11.1875 -17.34375 12.320312 -17.101562 13.375 -16.625 C 14.425781 -16.15625 15.332031 -15.515625 16.09375 -14.703125 C 16.851562 -13.890625 17.453125 -12.941406 17.890625 -11.859375 C 18.335938 -10.785156 18.5625 -9.664062 18.5625 -8.5 Z M 9.96875 -0.9375 C 10.96875 -0.9375 11.90625 -1.128906 12.78125 -1.515625 C 13.65625 -1.910156 14.410156 -2.453125 15.046875 -3.140625 C 15.691406 -3.835938 16.203125 -4.640625 16.578125 -5.546875 C 16.953125 -6.460938 17.140625 -7.445312 17.140625 -8.5 C 17.140625 -9.519531 16.953125 -10.484375 16.578125 -11.390625 C 16.203125 -12.304688 15.691406 -13.109375 15.046875 -13.796875 C 14.410156 -14.492188 13.648438 -15.046875 12.765625 -15.453125 C 11.878906 -15.859375 10.929688 -16.0625 9.921875 -16.0625 C 8.921875 -16.0625 7.984375 -15.847656 7.109375 -15.421875 C 6.242188 -15.003906 5.488281 -14.445312 4.84375 -13.75 C 4.195312 -13.0625 3.691406 -12.265625 3.328125 -11.359375 C 2.972656 -10.453125 2.796875 -9.5 2.796875 -8.5 C 2.796875 -7.488281 2.972656 -6.53125 3.328125 -5.625 C 3.691406 -4.71875 4.195312 -3.910156 4.84375 -3.203125 C 5.488281 -2.503906 6.242188 -1.953125 7.109375 -1.546875 C 7.984375 -1.140625 8.9375 -0.9375 9.96875 -0.9375 Z M 9.96875 -0.9375 "/></g></g></g><g fill="#ffffff" fill-opacity="1"><g transform="translate(121.194274, 49.048194)"><g><path d="M 2.15625 -16.984375 L 3.515625 -16.984375 L 3.515625 -6.703125 C 3.515625 -5.890625 3.648438 -5.128906 3.921875 -4.421875 C 4.203125 -3.722656 4.578125 -3.113281 5.046875 -2.59375 C 5.523438 -2.082031 6.097656 -1.675781 6.765625 -1.375 C 7.441406 -1.082031 8.175781 -0.9375 8.96875 -0.9375 C 9.726562 -0.9375 10.441406 -1.078125 11.109375 -1.359375 C 11.773438 -1.648438 12.351562 -2.054688 12.84375 -2.578125 C 13.332031 -3.109375 13.710938 -3.71875 13.984375 -4.40625 C 14.265625 -5.101562 14.40625 -5.867188 14.40625 -6.703125 L 14.40625 -16.984375 L 15.765625 -16.984375 L 15.765625 -6.484375 C 15.765625 -5.523438 15.597656 -4.628906 15.265625 -3.796875 C 14.929688 -2.960938 14.457031 -2.238281 13.84375 -1.625 C 13.238281 -1.019531 12.519531 -0.535156 11.6875 -0.171875 C 10.851562 0.179688 9.945312 0.359375 8.96875 0.359375 C 7.976562 0.359375 7.066406 0.179688 6.234375 -0.171875 C 5.398438 -0.535156 4.675781 -1.019531 4.0625 -1.625 C 3.457031 -2.238281 2.988281 -2.960938 2.65625 -3.796875 C 2.320312 -4.628906 2.15625 -5.523438 2.15625 -6.484375 Z M 2.15625 -16.984375 "/></g></g></g><g fill="#ffffff" fill-opacity="1"><g transform="translate(139.115106, 49.048194)"><g><path d="M 15.765625 0 L 14.40625 0 L 14.40625 -10.28125 C 14.40625 -11.070312 14.273438 -11.816406 14.015625 -12.515625 C 13.753906 -13.222656 13.378906 -13.832031 12.890625 -14.34375 C 12.398438 -14.863281 11.816406 -15.28125 11.140625 -15.59375 C 10.472656 -15.90625 9.75 -16.0625 8.96875 -16.0625 C 8.15625 -16.0625 7.410156 -15.910156 6.734375 -15.609375 C 6.066406 -15.304688 5.492188 -14.890625 5.015625 -14.359375 C 4.535156 -13.835938 4.164062 -13.222656 3.90625 -12.515625 C 3.644531 -11.816406 3.515625 -11.070312 3.515625 -10.28125 L 3.515625 0 L 2.15625 0 L 2.15625 -10.5 C 2.15625 -11.457031 2.320312 -12.347656 2.65625 -13.171875 C 2.988281 -13.992188 3.453125 -14.710938 4.046875 -15.328125 C 4.648438 -15.953125 5.367188 -16.441406 6.203125 -16.796875 C 7.035156 -17.160156 7.957031 -17.34375 8.96875 -17.34375 C 9.96875 -17.34375 10.882812 -17.160156 11.71875 -16.796875 C 12.550781 -16.441406 13.265625 -15.945312 13.859375 -15.3125 C 14.460938 -14.6875 14.929688 -13.960938 15.265625 -13.140625 C 15.597656 -12.316406 15.765625 -11.4375 15.765625 -10.5 Z M 15.765625 0 "/></g></g></g><g fill="#ffffff" fill-opacity="1"><g transform="translate(157.035937, 49.048194)"><g><path d="M 16.421875 -25.09375 L 17.78125 -25.09375 L 17.78125 -8.390625 C 17.78125 -7.210938 17.578125 -6.09375 17.171875 -5.03125 C 16.765625 -3.96875 16.195312 -3.035156 15.46875 -2.234375 C 14.738281 -1.441406 13.863281 -0.8125 12.84375 -0.34375 C 11.832031 0.125 10.71875 0.359375 9.5 0.359375 C 8.300781 0.359375 7.203125 0.132812 6.203125 -0.3125 C 5.203125 -0.769531 4.328125 -1.394531 3.578125 -2.1875 C 2.835938 -2.976562 2.257812 -3.910156 1.84375 -4.984375 C 1.425781 -6.054688 1.21875 -7.226562 1.21875 -8.5 C 1.21875 -9.738281 1.425781 -10.898438 1.84375 -11.984375 C 2.257812 -13.078125 2.835938 -14.015625 3.578125 -14.796875 C 4.328125 -15.585938 5.203125 -16.207031 6.203125 -16.65625 C 7.203125 -17.113281 8.300781 -17.34375 9.5 -17.34375 C 11.363281 -17.34375 13.128906 -16.628906 14.796875 -15.203125 L 14.796875 -13.578125 C 14.015625 -14.390625 13.222656 -15.003906 12.421875 -15.421875 C 11.617188 -15.847656 10.644531 -16.0625 9.5 -16.0625 C 8.59375 -16.0625 7.71875 -15.859375 6.875 -15.453125 C 6.039062 -15.046875 5.3125 -14.5 4.6875 -13.8125 C 4.070312 -13.132812 3.578125 -12.332031 3.203125 -11.40625 C 2.835938 -10.488281 2.65625 -9.519531 2.65625 -8.5 C 2.65625 -7.445312 2.835938 -6.460938 3.203125 -5.546875 C 3.578125 -4.640625 4.070312 -3.835938 4.6875 -3.140625 C 5.3125 -2.453125 6.039062 -1.910156 6.875 -1.515625 C 7.71875 -1.128906 8.59375 -0.9375 9.5 -0.9375 C 10.53125 -0.9375 11.46875 -1.144531 12.3125 -1.5625 C 13.15625 -1.976562 13.878906 -2.53125 14.484375 -3.21875 C 15.097656 -3.914062 15.570312 -4.710938 15.90625 -5.609375 C 16.25 -6.503906 16.421875 -7.429688 16.421875 -8.390625 Z M 16.421875 -25.09375 "/></g></g></g><g fill="#ffffff" fill-opacity="1"><g transform="translate(176.963904, 49.048194)"><g><path d="M 14.484375 -2 C 14.628906 -1.53125 14.785156 -1.296875 14.953125 -1.296875 C 15.046875 -1.296875 15.128906 -1.394531 15.203125 -1.59375 C 15.273438 -1.800781 15.332031 -1.988281 15.375 -2.15625 L 21.65625 -23.328125 C 21.789062 -23.785156 21.914062 -24.15625 22.03125 -24.4375 C 22.15625 -24.726562 22.296875 -24.953125 22.453125 -25.109375 C 22.609375 -25.265625 22.789062 -25.367188 23 -25.421875 C 23.21875 -25.484375 23.5 -25.515625 23.84375 -25.515625 C 24.507812 -25.515625 24.960938 -25.265625 25.203125 -24.765625 C 25.441406 -24.265625 25.617188 -23.550781 25.734375 -22.625 L 28.8125 0 L 27.3125 0 L 24.234375 -22.875 C 24.160156 -23.414062 24.078125 -23.753906 23.984375 -23.890625 C 23.890625 -24.023438 23.789062 -24.09375 23.6875 -24.09375 C 23.5 -24.09375 23.367188 -23.988281 23.296875 -23.78125 C 23.222656 -23.582031 23.164062 -23.410156 23.125 -23.265625 L 17.03125 -2.46875 C 16.863281 -1.925781 16.722656 -1.472656 16.609375 -1.109375 C 16.503906 -0.753906 16.378906 -0.472656 16.234375 -0.265625 C 16.085938 -0.0664062 15.910156 0.0703125 15.703125 0.15625 C 15.503906 0.238281 15.238281 0.28125 14.90625 0.28125 C 14.59375 0.28125 14.34375 0.25 14.15625 0.1875 C 13.96875 0.132812 13.800781 0.015625 13.65625 -0.171875 C 13.507812 -0.367188 13.367188 -0.644531 13.234375 -1 C 13.109375 -1.363281 12.960938 -1.851562 12.796875 -2.46875 L 6.734375 -23.15625 C 6.660156 -23.414062 6.582031 -23.632812 6.5 -23.8125 C 6.414062 -24 6.289062 -24.09375 6.125 -24.09375 C 6.03125 -24.09375 5.9375 -24.023438 5.84375 -23.890625 C 5.75 -23.753906 5.675781 -23.472656 5.625 -23.046875 L 2.515625 0 L 1 0 L 4.125 -22.90625 C 4.164062 -23.21875 4.21875 -23.535156 4.28125 -23.859375 C 4.34375 -24.179688 4.4375 -24.460938 4.5625 -24.703125 C 4.695312 -24.941406 4.878906 -25.132812 5.109375 -25.28125 C 5.335938 -25.4375 5.628906 -25.515625 5.984375 -25.515625 C 6.347656 -25.515625 6.640625 -25.476562 6.859375 -25.40625 C 7.085938 -25.34375 7.285156 -25.207031 7.453125 -25 C 7.617188 -24.800781 7.765625 -24.507812 7.890625 -24.125 C 8.023438 -23.738281 8.191406 -23.25 8.390625 -22.65625 Z M 14.484375 -2 "/></g></g></g><g fill="#ffffff" fill-opacity="1"><g transform="translate(206.820012, 49.048194)"><g><path d="M 18.5625 -8.5 C 18.5625 -7.300781 18.347656 -6.164062 17.921875 -5.09375 C 17.492188 -4.019531 16.890625 -3.082031 16.109375 -2.28125 C 15.335938 -1.476562 14.425781 -0.835938 13.375 -0.359375 C 12.320312 0.117188 11.1875 0.359375 9.96875 0.359375 C 8.75 0.359375 7.613281 0.117188 6.5625 -0.359375 C 5.507812 -0.835938 4.597656 -1.476562 3.828125 -2.28125 C 3.066406 -3.082031 2.460938 -4.019531 2.015625 -5.09375 C 1.578125 -6.164062 1.359375 -7.300781 1.359375 -8.5 C 1.359375 -9.6875 1.578125 -10.816406 2.015625 -11.890625 C 2.460938 -12.972656 3.066406 -13.914062 3.828125 -14.71875 C 4.597656 -15.519531 5.507812 -16.15625 6.5625 -16.625 C 7.613281 -17.101562 8.75 -17.34375 9.96875 -17.34375 C 11.1875 -17.34375 12.320312 -17.101562 13.375 -16.625 C 14.425781 -16.15625 15.332031 -15.515625 16.09375 -14.703125 C 16.851562 -13.890625 17.453125 -12.941406 17.890625 -11.859375 C 18.335938 -10.785156 18.5625 -9.664062 18.5625 -8.5 Z M 9.96875 -0.9375 C 10.96875 -0.9375 11.90625 -1.128906 12.78125 -1.515625 C 13.65625 -1.910156 14.410156 -2.453125 15.046875 -3.140625 C 15.691406 -3.835938 16.203125 -4.640625 16.578125 -5.546875 C 16.953125 -6.460938 17.140625 -7.445312 17.140625 -8.5 C 17.140625 -9.519531 16.953125 -10.484375 16.578125 -11.390625 C 16.203125 -12.304688 15.691406 -13.109375 15.046875 -13.796875 C 14.410156 -14.492188 13.648438 -15.046875 12.765625 -15.453125 C 11.878906 -15.859375 10.929688 -16.0625 9.921875 -16.0625 C 8.921875 -16.0625 7.984375 -15.847656 7.109375 -15.421875 C 6.242188 -15.003906 5.488281 -14.445312 4.84375 -13.75 C 4.195312 -13.0625 3.691406 -12.265625 3.328125 -11.359375 C 2.972656 -10.453125 2.796875 -9.5 2.796875 -8.5 C 2.796875 -7.488281 2.972656 -6.53125 3.328125 -5.625 C 3.691406 -4.71875 4.195312 -3.910156 4.84375 -3.203125 C 5.488281 -2.503906 6.242188 -1.953125 7.109375 -1.546875 C 7.984375 -1.140625 8.9375 -0.9375 9.96875 -0.9375 Z M 9.96875 -0.9375 "/></g></g></g><g fill="#ffffff" fill-opacity="1"><g transform="translate(226.747979, 49.048194)"><g><path d="M 18.5625 -8.5 C 18.5625 -7.300781 18.347656 -6.164062 17.921875 -5.09375 C 17.492188 -4.019531 16.890625 -3.082031 16.109375 -2.28125 C 15.335938 -1.476562 14.425781 -0.835938 13.375 -0.359375 C 12.320312 0.117188 11.1875 0.359375 9.96875 0.359375 C 8.75 0.359375 7.613281 0.117188 6.5625 -0.359375 C 5.507812 -0.835938 4.597656 -1.476562 3.828125 -2.28125 C 3.066406 -3.082031 2.460938 -4.019531 2.015625 -5.09375 C 1.578125 -6.164062 1.359375 -7.300781 1.359375 -8.5 C 1.359375 -9.6875 1.578125 -10.816406 2.015625 -11.890625 C 2.460938 -12.972656 3.066406 -13.914062 3.828125 -14.71875 C 4.597656 -15.519531 5.507812 -16.15625 6.5625 -16.625 C 7.613281 -17.101562 8.75 -17.34375 9.96875 -17.34375 C 11.1875 -17.34375 12.320312 -17.101562 13.375 -16.625 C 14.425781 -16.15625 15.332031 -15.515625 16.09375 -14.703125 C 16.851562 -13.890625 17.453125 -12.941406 17.890625 -11.859375 C 18.335938 -10.785156 18.5625 -9.664062 18.5625 -8.5 Z M 9.96875 -0.9375 C 10.96875 -0.9375 11.90625 -1.128906 12.78125 -1.515625 C 13.65625 -1.910156 14.410156 -2.453125 15.046875 -3.140625 C 15.691406 -3.835938 16.203125 -4.640625 16.578125 -5.546875 C 16.953125 -6.460938 17.140625 -7.445312 17.140625 -8.5 C 17.140625 -9.519531 16.953125 -10.484375 16.578125 -11.390625 C 16.203125 -12.304688 15.691406 -13.109375 15.046875 -13.796875 C 14.410156 -14.492188 13.648438 -15.046875 12.765625 -15.453125 C 11.878906 -15.859375 10.929688 -16.0625 9.921875 -16.0625 C 8.921875 -16.0625 7.984375 -15.847656 7.109375 -15.421875 C 6.242188 -15.003906 5.488281 -14.445312 4.84375 -13.75 C 4.195312 -13.0625 3.691406 -12.265625 3.328125 -11.359375 C 2.972656 -10.453125 2.796875 -9.5 2.796875 -8.5 C 2.796875 -7.488281 2.972656 -6.53125 3.328125 -5.625 C 3.691406 -4.71875 4.195312 -3.910156 4.84375 -3.203125 C 5.488281 -2.503906 6.242188 -1.953125 7.109375 -1.546875 C 7.984375 -1.140625 8.9375 -0.9375 9.96875 -0.9375 Z M 9.96875 -0.9375 "/></g></g></g><g fill="#ffffff" fill-opacity="1"><g transform="translate(246.675947, 49.048194)"><g><path d="M 15.765625 0 L 14.40625 0 L 14.40625 -10.28125 C 14.40625 -11.070312 14.273438 -11.816406 14.015625 -12.515625 C 13.753906 -13.222656 13.378906 -13.832031 12.890625 -14.34375 C 12.398438 -14.863281 11.816406 -15.28125 11.140625 -15.59375 C 10.472656 -15.90625 9.75 -16.0625 8.96875 -16.0625 C 8.15625 -16.0625 7.410156 -15.910156 6.734375 -15.609375 C 6.066406 -15.304688 5.492188 -14.890625 5.015625 -14.359375 C 4.535156 -13.835938 4.164062 -13.222656 3.90625 -12.515625 C 3.644531 -11.816406 3.515625 -11.070312 3.515625 -10.28125 L 3.515625 0 L 2.15625 0 L 2.15625 -10.5 C 2.15625 -11.457031 2.320312 -12.347656 2.65625 -13.171875 C 2.988281 -13.992188 3.453125 -14.710938 4.046875 -15.328125 C 4.648438 -15.953125 5.367188 -16.441406 6.203125 -16.796875 C 7.035156 -17.160156 7.957031 -17.34375 8.96875 -17.34375 C 9.96875 -17.34375 10.882812 -17.160156 11.71875 -16.796875 C 12.550781 -16.441406 13.265625 -15.945312 13.859375 -15.3125 C 14.460938 -14.6875 14.929688 -13.960938 15.265625 -13.140625 C 15.597656 -12.316406 15.765625 -11.4375 15.765625 -10.5 Z M 15.765625 0 "/></g></g></g></svg>